<svg width="192" height="192" viewBox="0 0 192 192" fill="none" xmlns="http://www.w3.org/2000/svg">
<rect width="192" height="192" fill="black"/>
<rect width="192" height="38.625" transform="translate(0 77.25)" fill="#2A9D8F"/>
<path d="M0 101.25C0 87.9952 10.7452 77.25 24 77.25H168C181.255 77.25 192 87.9952 192 101.25V115.875H0V101.25Z" fill="#E9C46A"/>
<rect width="192" height="38.625" transform="translate(0 38.625)" fill="#0077B6"/>
<path d="M0 62.625C0 49.3702 10.7452 38.625 24 38.625H168C181.255 38.625 192 49.3702 192 62.625V77.25H0V62.625Z" fill="#2A9D8F"/>
<rect width="192" height="38.625" fill="white"/>
<path d="M0 24C0 10.7452 10.7452 0 24 0H168C181.255 0 192 10.7452 192 24V38.625H0V24Z" fill="#0077B6"/>
<rect width="192" height="38.625" transform="translate(0 115.875)" fill="#E9C46A"/>
<path d="M0 139.875C0 126.62 10.7452 115.875 24 115.875H168C181.255 115.875 192 126.62 192 139.875V154.5H0V139.875Z" fill="#F4A261"/>
<rect width="192" height="38.625" transform="translate(0 153.375)" fill="#F4A261"/>
<path d="M0 177.375C0 164.12 10.7452 153.375 24 153.375H168C181.255 153.375 192 164.12 192 177.375V192H0V177.375Z" fill="#E76F51"/>
<path fill-rule="evenodd" clip-rule="evenodd" d="M24 0C10.7452 0 0 10.7452 0 24V168C0 181.255 10.7452 192 24 192H168C181.255 192 192 181.255 192 168V24C192 10.7452 181.255 0 168 0H24ZM96 172.875C138.457 172.875 172.875 138.457 172.875 96C172.875 53.5431 138.457 19.125 96 19.125C53.5431 19.125 19.125 53.5431 19.125 96C19.125 138.457 53.5431 172.875 96 172.875Z" fill="white"/>
</svg>
