<svg width="567" height="200" viewBox="0 0 567 200" fill="none" xmlns="http://www.w3.org/2000/svg">
<path d="M0 15.8416V182.178C0 190.927 7.09252 198.02 15.8416 198.02C24.5907 198.02 31.6832 190.927 31.6832 182.178V75.2475H47.5248C56.2738 75.2475 63.3663 68.155 63.3663 59.4059C63.3663 50.6569 56.2738 43.5644 47.5248 43.5644H31.6832V15.8416C31.6832 7.09252 24.5907 0 15.8416 0C7.09252 0 0 7.09252 0 15.8416Z" fill="white"/>
<path fill-rule="evenodd" clip-rule="evenodd" d="M237.624 15.8416C237.624 7.09252 244.716 0 253.465 0C262.214 0 269.307 7.09252 269.307 15.8416V55.4397C282.545 45.4962 299 39.604 316.832 39.604C360.577 39.604 396.04 75.0666 396.04 118.812C396.04 162.557 360.577 198.02 316.832 198.02C299 198.02 282.545 192.128 269.307 182.184C250.068 167.733 237.624 144.726 237.624 118.812V15.8416ZM316.832 166.337C343.079 166.337 364.356 145.059 364.356 118.812C364.356 92.5647 343.079 71.2871 316.832 71.2871C290.585 71.2871 269.307 92.5647 269.307 118.812C269.307 145.059 290.585 166.337 316.832 166.337Z" fill="white"/>
<path d="M407.921 87.1288C407.921 60.8816 429.198 39.604 455.445 39.604H502.97C511.719 39.604 518.812 46.6965 518.812 55.4456C518.812 64.1947 511.719 71.2872 502.97 71.2872H455.445C446.696 71.2872 439.604 78.3797 439.604 87.1288C439.604 95.8778 446.696 102.97 455.445 102.97H518.812C532.887 102.97 545.533 109.089 554.235 118.812C561.761 127.22 566.337 138.323 566.337 150.495C566.337 176.742 545.059 198.02 518.812 198.02H423.762C415.013 198.02 407.921 190.927 407.921 182.178C407.921 173.429 415.013 166.337 423.762 166.337H518.812C527.561 166.337 534.653 159.244 534.653 150.495C534.653 141.746 527.561 134.654 518.812 134.654H455.445C441.37 134.654 428.724 128.535 420.022 118.812C412.497 110.404 407.921 99.3007 407.921 87.1288Z" fill="white"/>
<path fill-rule="evenodd" clip-rule="evenodd" d="M142.574 198.02C98.829 198.02 63.3664 162.557 63.3664 118.812C63.3664 75.0666 98.829 39.604 142.574 39.604C186.32 39.604 221.782 75.0666 221.782 118.812V184.158C221.782 192.908 214.69 200 205.941 200C197.192 200 190.099 192.908 190.099 184.158V182.184C176.861 192.128 160.406 198.02 142.574 198.02ZM142.574 166.337C168.822 166.337 190.099 145.059 190.099 118.812C190.099 92.5647 168.822 71.2872 142.574 71.2872C116.327 71.2872 95.0496 92.5647 95.0496 118.812C95.0496 145.059 116.327 166.337 142.574 166.337Z" fill="white"/>
</svg>
